PathFileType	4	(X/Y/Z)	SUBJ82_3_walk_RCNL2025.trc
DataRate	CameraRate	NumFrames	NumMarkers	Units	OrigDataRate	OrigDataStartFrame	OrigNumFrames
100	100	10	25	mm	100	113	225
Frame#	Time	R_Shoulder			L_Shoulder			C7			J_Notch			R_Elbow			L_Elbow			R_Wrist			L_Wrist			R_Asis			L_Asis			Sacral			Thoracic			Sternum			R_Thigh_Lateral			R_Knee_Lateral			R_Shank_Lateral			R_Ankle_Lateral			R_Heel			R_Toe			L_Thigh_Lateral			L_Knee_Lateral			L_Shank_Lateral			L_Ankle_Lateral			L_Heel			L_Toe		
		X1	Y1	Z1	X2	Y2	Z2	X3	Y3	Z3	X4	Y4	Z4	X5	Y5	Z5	X6	Y6	Z6	X7	Y7	Z7	X8	Y8	Z8	X9	Y9	Z9	X10	Y10	Z10	X11	Y11	Z11	X12	Y12	Z12	X13	Y13	Z13	X14	Y14	Z14	X15	Y15	Z15	X16	Y16	Z16	X17	Y17	Z17	X18	Y18	Z18	X19	Y19	Z19	X20	Y20	Z20	X21	Y21	Z21	X22	Y22	Z22	X23	Y23	Z23	X24	Y24	Z24	X25	Y25	Z25
113	1.12000000	-374.798492	1422.620117	482.235687	-315.946808	1447.046753	77.969261	-396.920868	1530.334717	282.112030	-277.503265	1408.662842	289.109222	-486.669098	1096.600220	535.854431	-367.625336	1108.212402	-24.850645	-444.265808	838.890137	519.175842	-251.331093	872.394928	-15.855889	-304.818085	997.262878	407.514771	-280.802338	1011.148560	141.824982	-473.397217	1021.436401	250.446060	-491.298645	1293.492432	249.109268	-254.296234	1233.831787	285.307190	-266.593445	582.358887	477.039642	-259.035095	503.462372	433.083679	-397.828430	335.625397	476.857422	-489.300232	181.017731	375.431274	-535.906128	174.855133	325.245239	-390.212341	84.250320	373.395142	-354.361481	561.156677	101.614693	-354.253937	487.151093	150.293488	-366.436646	253.683456	123.593079	-393.804657	69.456055	200.370865	-441.955383	54.105759	249.009094	-257.608002	43.289234	238.837799
114	1.13000000	-361.481598	1422.564453	482.607056	-302.017242	1448.296875	78.560135	-383.306580	1530.632080	282.682190	-263.911224	1409.070679	289.542328	-476.812714	1097.296265	534.028320	-349.312683	1109.145508	-25.483541	-436.962082	839.248413	516.390015	-227.000664	876.412292	-16.131442	-290.737122	998.553467	407.168854	-267.823853	1011.045471	141.371262	-459.893524	1021.802368	251.329819	-477.503601	1293.838135	249.033981	-240.780685	1234.250854	285.140656	-244.481171	585.514160	476.895325	-236.239822	505.954498	432.511566	-365.860962	330.026672	477.170532	-448.572418	170.066498	376.456482	-494.634979	160.389633	326.368378	-343.158966	80.174110	375.295135	-349.379425	561.497620	102.274681	-350.731262	487.363708	150.930634	-364.920868	253.904800	124.014778	-393.555817	69.685677	200.678848	-441.676758	54.466049	249.204239	-257.433319	43.222427	238.859650
115	1.14000000	-348.143738	1422.126343	482.945740	-288.084412	1449.109009	79.129433	-369.702728	1530.546753	283.220062	-250.330322	1409.090332	289.946716	-466.760590	1097.621094	532.238831	-331.149628	1109.704468	-26.031242	-429.384140	839.263336	513.664871	-202.889168	880.211273	-16.241944	-276.675995	999.325867	406.940399	-254.843094	1010.589783	141.023178	-446.403839	1021.726868	252.254303	-463.736053	1293.821655	249.019119	-227.245346	1234.255005	284.992523	-223.100174	588.154419	476.583801	-214.234695	507.872711	431.837738	-333.665283	323.837524	477.468903	-406.894958	158.960693	377.473297	-452.130493	145.805283	327.458435	-295.580414	76.439255	377.186829	-344.127747	561.722107	102.947296	-346.923615	487.496155	151.573090	-363.130157	254.058853	124.460030	-393.284637	69.919731	201.001633	-441.416870	54.839161	249.433380	-257.257660	43.169228	238.903793
116	1.15000000	-334.799164	1421.302979	483.255646	-274.141632	1449.463379	79.680656	-356.092255	1530.076904	283.726685	-236.748184	1408.712769	290.332947	-456.498657	1097.556763	530.489502	-313.102386	1109.867676	-26.502493	-421.507553	838.917053	511.014053	-179.001678	883.757996	-16.190306	-262.629974	999.568787	406.844330	-241.849396	1009.791931	140.795868	-432.923340	1021.211060	253.214890	-449.995605	1293.450073	249.071045	-213.690216	1233.826538	284.881836	-202.538895	590.195007	476.113373	-193.061172	509.160583	431.074493	-301.317596	317.229675	477.765106	-364.292389	147.929672	378.513275	-408.453217	131.399902	328.547577	-247.584412	73.249283	379.102081	-338.577301	561.819336	103.615997	-342.791016	487.538086	152.205521	-361.052338	254.136673	124.915421	-392.996185	70.154793	201.328873	-441.194305	55.221947	249.693924	-257.091827	43.130646	238.968231
117	1.16000000	-321.459503	1420.099365	483.541809	-260.183136	1449.349365	80.217560	-342.459991	1529.226074	284.203949	-223.152954	1407.934814	290.710541	-446.019470	1097.093384	528.782837	-295.141846	1109.622192	-26.902477	-413.312057	838.200897	508.448364	-155.340691	887.026642	-15.979412	-248.589020	999.283447	406.890564	-228.831238	1008.671448	140.699890	-419.443817	1020.261780	254.210236	-436.283691	1292.735107	249.196335	-200.117493	1232.957642	284.822266	-182.892685	591.551270	475.497498	-172.755386	509.772522	430.232513	-268.923676	310.388519	478.067841	-320.830505	137.214691	379.612396	-363.703705	117.476707	329.673737	-199.297806	70.802475	381.057861	-332.710022	561.780640	104.265907	-338.304962	487.481323	152.815170	-358.699829	254.134186	125.368408	-392.695801	70.389397	201.652466	-441.021240	55.613083	249.980438	-256.947998	43.105789	239.051559
118	1.17000000	-308.132782	1418.527954	483.810547	-246.203018	1448.765259	80.744415	-328.793365	1528.003052	284.654419	-209.534409	1406.758911	291.087708	-435.320862	1096.229858	527.121460	-277.244934	1108.963135	-27.232853	-404.781113	837.114563	505.976105	-131.908504	889.998657	-15.611950	-234.537308	998.482483	407.082336	-215.777130	1007.254639	140.739456	-405.953827	1018.891296	255.243439	-422.603058	1291.692383	249.401703	-186.530380	1231.651489	284.821930	-164.257950	592.140259	474.753021	-153.341705	509.677124	429.320526	-236.612488	303.503235	478.382172	-276.627594	127.065887	380.808624	-318.024231	104.331612	330.875671	-150.873184	69.285637	383.055939	-326.519318	561.599609	104.884872	-333.448822	487.319794	153.392990	-356.103912	254.051804	125.808945	-392.388275	70.624344	201.967987	-440.900146	56.014725	250.285034	-256.838074	43.092148	239.152969
119	1.18000000	-294.822845	1416.607666	484.069244	-232.194580	1447.718140	81.266159	-315.082855	1526.421021	285.081543	-195.884537	1405.192749	291.471252	-424.404449	1094.973511	525.507996	-259.395477	1107.893921	-27.492163	-395.901016	835.665283	503.603928	-108.709400	892.661438	-15.090487	-220.453903	997.188354	407.415375	-202.676620	1005.572266	140.911102	-392.439240	1017.117493	256.322662	-408.956451	1290.340454	249.693710	-172.931747	1229.921875	284.883759	-146.722549	591.885742	473.898376	-134.825729	508.861267	428.345398	-204.526749	296.757233	478.709961	-231.860733	117.733711	382.137909	-271.601746	92.238060	332.188080	-102.494331	68.865379	385.083282	-320.009460	561.272949	105.464264	-328.217041	487.049561	153.934341	-353.305481	253.893768	126.231102	-392.077057	70.863045	202.275558	-440.823273	56.433865	250.599258	-256.770996	43.086357	239.271469
120	1.19000000	-281.528748	1414.363159	484.326233	-218.150223	1446.223999	81.788353	-301.322205	1524.497681	285.489441	-182.197815	1403.249268	291.866821	-413.273773	1093.339233	523.946350	-241.584000	1106.425659	-27.676451	-386.659866	833.866974	501.337555	-85.751312	895.007446	-14.417734	-206.314804	995.431763	407.877777	-189.520966	1003.656982	141.203506	-378.884125	1014.964417	257.460815	-395.345398	1288.700439	250.078232	-159.322998	1227.792603	285.006775	-130.352570	590.725708	472.952057	-117.187233	507.334473	427.312683	-172.811035	290.319092	479.051086	-186.766434	109.454170	383.628540	-224.672165	81.430954	333.638031	-54.379673	69.676483	387.113098	-313.193512	560.800110	105.999435	-322.612976	486.668732	154.439240	-350.345856	253.667709	126.634041	-391.763763	71.111839	202.580109	-440.774506	56.883091	250.917206	-256.750366	43.085030	239.405060
121	1.20000000	-268.244476	1411.824219	484.590454	-204.061905	1444.307007	82.317055	-287.508331	1522.254761	285.883057	-168.470810	1400.946777	292.279083	-401.932434	1091.349731	522.441772	-223.807297	1104.577148	-27.779963	-377.046661	831.740204	499.182510	-63.046913	897.032562	-13.597009	-192.095627	993.250122	408.450714	-176.303360	1001.541138	141.598236	-365.271973	1012.463013	258.674286	-381.768799	1286.794800	250.559830	-145.702972	1225.296387	285.187408	-115.176826	588.623230	471.932159	-100.374138	505.132629	426.228210	-141.600021	284.334839	479.404755	-141.635712	102.429710	385.294983	-177.526184	72.091980	335.242401	-6.783946	71.807449	389.106049	-306.090240	560.183594	106.489784	-316.645813	486.177094	154.911880	-347.259094	253.384186	127.022156	-391.447784	71.380470	202.890564	-440.732849	57.380722	251.238113	-256.772827	43.085304	239.550064
122	1.21000000	-254.959045	1409.024780	484.871185	-189.921585	1441.999512	82.858604	-273.641022	1519.718628	286.268280	-154.701385	1398.310181	292.712158	-390.382629	1089.034302	521.001953	-206.067764	1102.374756	-27.795778	-367.050308	829.311646	497.144943	-40.614049	898.735626	-12.632772	-177.774551	990.687256	409.109711	-163.018768	999.255127	142.071426	-351.587158	1009.651367	259.980835	-368.221619	1284.647949	251.140945	-132.067108	1222.473511	285.421051	-101.170837	585.577820	470.856812	-84.298180	502.320465	425.100189	-111.009163	278.921570	479.771027	-96.805962	96.808510	387.132233	-130.513565	64.337669	337.006012	40.002834	75.284302	391.011902	-298.720367	559.428894	106.938484	-310.327637	485.576202	155.359726	-344.068054	253.056702	127.404152	-391.126343	71.682739	203.218170	-440.676208	57.950378	251.567337	-256.828156	43.084965	239.701248
